<?xml version="1.0" encoding="UTF-8" standalone="no"?>
<!-- Generator: Adobe Illustrator 16.0.0, SVG Export Plug-In . SVG Version: 6.00 Build 0)  -->

<svg
   xmlns:dc="http://purl.org/dc/elements/1.1/"
   xmlns:cc="http://creativecommons.org/ns#"
   xmlns:rdf="http://www.w3.org/1999/02/22-rdf-syntax-ns#"
   xmlns:svg="http://www.w3.org/2000/svg"
   xmlns="http://www.w3.org/2000/svg"
   xmlns:sodipodi="http://sodipodi.sourceforge.net/DTD/sodipodi-0.dtd"
   xmlns:inkscape="http://www.inkscape.org/namespaces/inkscape"
   version="1.1"
   id="Layer_1"
   x="0px"
   y="0px"
   width="100px"
   height="100px"
   viewBox="0 0 100 100"
   enable-background="new 0 0 100 100"
   xml:space="preserve"
   inkscape:version="0.48.4 r9939"
   sodipodi:docname="Cloud-Computing-Icons_locked.svg"
   inkscape:export-filename="/home/lukas/workspace-temp/minimac-cloud/files/pages/images/secure.png"
   inkscape:export-xdpi="58.109146"
   inkscape:export-ydpi="58.109146"><metadata
     id="metadata3007"><rdf:RDF><cc:Work
         rdf:about=""><dc:format>image/svg+xml</dc:format><dc:type
           rdf:resource="http://purl.org/dc/dcmitype/StillImage" /><dc:title></dc:title></cc:Work></rdf:RDF></metadata><defs
     id="defs3005" /><sodipodi:namedview
     pagecolor="#ffffff"
     bordercolor="#666666"
     borderopacity="1"
     objecttolerance="10"
     gridtolerance="10"
     guidetolerance="10"
     inkscape:pageopacity="0"
     inkscape:pageshadow="2"
     inkscape:window-width="1615"
     inkscape:window-height="1026"
     id="namedview3003"
     showgrid="false"
     inkscape:zoom="2.36"
     inkscape:cx="-24.576271"
     inkscape:cy="50"
     inkscape:window-x="65"
     inkscape:window-y="24"
     inkscape:window-maximized="1"
     inkscape:current-layer="Layer_1" /><g
     id="g2997"
     style="fill:#0088cc;fill-opacity:1"><path
       d="M69.659,55.875c0-4.256-0.006-9.084-0.006-11.324c0-10.859-8.832-19.694-19.691-19.694   c-10.858,0-19.698,8.835-19.698,19.694c0,2.256-0.003,7.079-0.009,11.324c-5.146,0-9.317,4.169-9.317,9.314v24.594   c0,5.145,4.171,9.314,9.317,9.314h39.4c5.146,0,9.317-4.17,9.317-9.314V65.185C78.972,60.044,74.801,55.875,69.659,55.875z    M53.537,77.72v7.692c0,1.978-1.602,3.582-3.582,3.582c-1.977,0-3.581-1.604-3.581-3.582V77.72   c-1.747-1.164-2.901-3.147-2.901-5.402c0-3.579,2.904-6.482,6.482-6.482c3.582,0,6.486,2.904,6.486,6.482   C56.441,74.572,55.287,76.556,53.537,77.72z M37.759,55.875c0.006-4.247,0.013-9.067,0.013-11.326   c0-6.719,5.466-12.186,12.189-12.186c6.716,0,12.184,5.467,12.184,12.186c0,2.238,0.006,7.066,0.006,11.326H37.759z"
       id="path2999"
       style="fill:#0088cc;fill-opacity:1" /><path
       d="M77.878,15.165c-0.695-0.06-1.333-0.415-1.75-0.976c-3.79-5.102-9.856-8.246-16.309-8.246   c-0.396,0-0.793,0.012-1.189,0.035c-0.578,0.034-1.146-0.138-1.608-0.486c-3.932-2.958-8.691-4.561-13.675-4.561   c-8.93,0-16.858,5.166-20.576,12.992c-0.351,0.74-1.051,1.253-1.861,1.369C11.07,16.694,3.48,25.175,3.48,35.395   c0,10.296,7.709,18.806,17.656,20.111c1.444-1.36,3.186-2.408,5.123-3.018c0.001-1.699,0.003-3.354,0.004-4.789h-2.478   c-6.785,0-12.305-5.52-12.305-12.305c0-6.785,5.52-12.305,12.305-12.305c0.343,0,0.68,0.027,1.015,0.055   c1.955,0.151,3.726-1.117,4.202-3.014c1.655-6.594,7.554-11.199,14.344-11.199c3.88,0,7.552,1.499,10.339,4.219   c0.953,0.929,2.306,1.325,3.61,1.053c0.83-0.173,1.679-0.261,2.524-0.261c4.75,0,8.993,2.671,11.071,6.97   c0.73,1.512,2.328,2.411,3.999,2.239c0.416-0.042,0.831-0.063,1.234-0.063c6.785,0,12.305,5.52,12.305,12.305   c0,6.785-5.52,12.305-12.305,12.305h-2.47l0.002,4.789c1.936,0.611,3.676,1.658,5.12,3.017c9.944-1.306,17.653-9.816,17.653-20.111   C96.429,24.79,88.256,16.057,77.878,15.165z"
       id="path3001"
       style="fill:#0088cc;fill-opacity:1" /></g><path
     sodipodi:type="arc"
     style="fill:none;stroke:#0088cc;stroke-width:8.39999962;stroke-miterlimit:4.32142878;stroke-opacity:1;stroke-dasharray:none;stroke-dashoffset:0"
     id="path3028"
     sodipodi:cx="25"
     sodipodi:cy="53.81356"
     sodipodi:rx="77.118645"
     sodipodi:ry="77.118645"
     d="m 102.11864,53.81356 a 77.118645,77.118645 0 1 1 -154.237285,0 77.118645,77.118645 0 1 1 154.237285,0 z"
     transform="translate(24.152542,-5.0847457)" /></svg>