<?xml version="1.0" encoding="UTF-8" standalone="no"?>
<!-- Generator: Adobe Illustrator 16.0.0, SVG Export Plug-In . SVG Version: 6.00 Build 0)  -->

<svg
   xmlns:dc="http://purl.org/dc/elements/1.1/"
   xmlns:cc="http://creativecommons.org/ns#"
   xmlns:rdf="http://www.w3.org/1999/02/22-rdf-syntax-ns#"
   xmlns:svg="http://www.w3.org/2000/svg"
   xmlns="http://www.w3.org/2000/svg"
   xmlns:sodipodi="http://sodipodi.sourceforge.net/DTD/sodipodi-0.dtd"
   xmlns:inkscape="http://www.inkscape.org/namespaces/inkscape"
   version="1.1"
   id="Layer_1"
   x="0px"
   y="0px"
   width="100px"
   height="100px"
   viewBox="0 0 100 100"
   enable-background="new 0 0 100 100"
   xml:space="preserve"
   inkscape:version="0.48.4 r9939"
   sodipodi:docname="Cloud-Computing-Icons_user.svg"
   inkscape:export-filename="/home/lukas/workspace-temp/minimac-cloud/files/pages/images/control.png"
   inkscape:export-xdpi="58.109146"
   inkscape:export-ydpi="58.109146"><metadata
     id="metadata3024"><rdf:RDF><cc:Work
         rdf:about=""><dc:format>image/svg+xml</dc:format><dc:type
           rdf:resource="http://purl.org/dc/dcmitype/StillImage" /><dc:title></dc:title></cc:Work></rdf:RDF></metadata><defs
     id="defs3022" /><sodipodi:namedview
     pagecolor="#ffffff"
     bordercolor="#666666"
     borderopacity="1"
     objecttolerance="10"
     gridtolerance="10"
     guidetolerance="10"
     inkscape:pageopacity="0"
     inkscape:pageshadow="2"
     inkscape:window-width="1615"
     inkscape:window-height="1026"
     id="namedview3020"
     showgrid="false"
     inkscape:zoom="2.36"
     inkscape:cx="-24.576271"
     inkscape:cy="50"
     inkscape:window-x="65"
     inkscape:window-y="24"
     inkscape:window-maximized="1"
     inkscape:current-layer="Layer_1" /><g
     id="g3010"
     style="fill:#0088cc;fill-opacity:1"><path
       d="M67.094,46.128c0-9.343-7.57-16.916-16.92-16.916c-9.338,0-16.915,7.573-16.915,16.916c0,9.34,7.577,16.912,16.915,16.912   C59.524,63.041,67.094,55.469,67.094,46.128z"
       id="path3012"
       style="fill:#0088cc;fill-opacity:1" /><path
       d="M63.662,70.722L50.234,90.588L36.692,70.722C31.27,74.448,24.214,82.707,20.34,98.578h59.672   C76.738,83.372,68.941,74.35,63.662,70.722z"
       id="path3014"
       style="fill:#0088cc;fill-opacity:1" /><path
       d="M58.233,64.814l-4.021,1.717c-0.826-1.393-2.325-2.347-4.076-2.347c-1.756,0-3.268,0.961-4.094,2.375l-3.996-1.686   c-0.582-0.244-1.254-0.183-1.787,0.171c-0.527,0.346-0.845,0.941-0.845,1.577v5.032c0,0.597,0.275,1.161,0.765,1.519   c0.472,0.363,1.102,0.47,1.671,0.297c1.609-0.477,3.586-1.079,4.718-1.423c0.875,0.998,2.154,1.64,3.568,1.64   c1.475,0,2.785-0.685,3.659-1.74c1.108,0.348,3.066,0.936,4.633,1.417c0.575,0.175,1.229,0.071,1.701-0.291   c0.489-0.356,0.807-0.919,0.807-1.523v-4.998c0-0.638-0.349-1.23-0.887-1.583C59.518,64.624,58.814,64.558,58.233,64.814z"
       id="path3016"
       style="fill:#0088cc;fill-opacity:1" /><path
       d="M78.1,15.747c-0.695-0.06-1.333-0.415-1.75-0.976c-3.79-5.102-9.856-8.246-16.309-8.246c-0.396,0-0.793,0.012-1.189,0.035   c-0.578,0.034-1.146-0.138-1.608-0.486c-3.932-2.958-8.691-4.561-13.675-4.561c-8.93,0-16.858,5.166-20.576,12.992   c-0.351,0.74-1.051,1.253-1.861,1.369c-9.839,1.401-17.429,9.882-17.429,20.102c0,11.196,9.109,20.305,20.305,20.305h7.896   c-1.351-2.414-2.231-5.121-2.529-8h-5.368c-6.785,0-12.305-5.52-12.305-12.305c0-6.785,5.52-12.305,12.305-12.305   c0.343,0,0.68,0.027,1.015,0.055c1.955,0.151,3.726-1.117,4.202-3.014c1.655-6.594,7.554-11.199,14.344-11.199   c3.88,0,7.552,1.499,10.339,4.219c0.953,0.929,2.306,1.325,3.61,1.053c0.83-0.173,1.679-0.261,2.524-0.261   c4.75,0,8.993,2.671,11.071,6.97c0.73,1.512,2.328,2.411,3.999,2.239c0.416-0.042,0.831-0.063,1.234-0.063   c6.785,0,12.305,5.52,12.305,12.305c0,6.785-5.52,12.305-12.305,12.305h-5.369c-0.297,2.879-1.178,5.586-2.529,8h7.898   c11.196,0,20.305-9.109,20.305-20.305C96.651,25.372,88.479,16.64,78.1,15.747z"
       id="path3018"
       style="fill:#0088cc;fill-opacity:1" /></g><path
     sodipodi:type="arc"
     style="fill:none;stroke:#0088cc;stroke-width:8.39999962;stroke-miterlimit:4.32142878;stroke-opacity:1;stroke-dasharray:none;stroke-dashoffset:0"
     id="path3028"
     sodipodi:cx="25"
     sodipodi:cy="53.81356"
     sodipodi:rx="77.118645"
     sodipodi:ry="77.118645"
     d="m 102.11864,53.81356 a 77.118645,77.118645 0 1 1 -154.237285,0 77.118645,77.118645 0 1 1 154.237285,0 z"
     transform="translate(25,-2.9661032)" /></svg>