<?xml version="1.0" encoding="utf-8"?>
<!-- Generator: Adobe Illustrator 16.0.0, SVG Export Plug-In . SVG Version: 6.00 Build 0)  -->
<!DOCTYPE svg PUBLIC "-//W3C//DTD SVG 1.1//EN" "http://www.w3.org/Graphics/SVG/1.1/DTD/svg11.dtd">
<svg version="1.1" id="Layer_1" xmlns="http://www.w3.org/2000/svg" xmlns:xlink="http://www.w3.org/1999/xlink" x="0px" y="0px"
	 width="100px" height="100px" viewBox="0 0 100 100" enable-background="new 0 0 100 100" xml:space="preserve">
<g>
	<path d="M50.061,43.53v-2.035c0-0.818-0.463-1.563-1.194-1.927c-0.732-0.367-1.604-0.282-2.257,0.208l-9.804,7.403
		c-0.542,0.406-0.858,1.044-0.858,1.72c0,0.674,0.316,1.311,0.858,1.717l9.804,7.399c0.653,0.49,1.525,0.571,2.257,0.207
		c0.73-0.366,1.194-1.112,1.194-1.929v-1.9c8.287,0.811,15.023,6.995,16.441,15.083c0.321,1.729,1.811,2.976,3.561,2.976h3.601
		c1.05,0,2.055-0.447,2.735-1.247c0.69-0.79,0.993-1.847,0.833-2.892C75.199,54.828,63.918,44.371,50.061,43.53z"/>
	<path d="M63.262,85.508l-9.806-7.396c-0.651-0.493-1.525-0.574-2.257-0.211c-0.731,0.368-1.194,1.112-1.194,1.93v1.898
		c-8.289-0.81-15.024-6.993-16.441-15.083c-0.321-1.727-1.809-2.973-3.56-2.973h-3.603c-1.052,0-2.054,0.446-2.735,1.246
		c-0.689,0.79-0.995,1.847-0.834,2.892c2.034,13.483,13.314,23.943,27.172,24.783v2.035c0,0.817,0.463,1.565,1.194,1.928
		c0.732,0.365,1.606,0.283,2.257-0.209l9.806-7.404c0.539-0.406,0.856-1.043,0.856-1.717C64.118,86.551,63.8,85.914,63.262,85.508z"
		/>
	<path d="M79.546,29.043c-0.7-0.058-1.343-0.416-1.761-0.98c-4.011-5.43-10.453-8.78-17.306-8.78c-0.436,0-0.872,0.014-1.308,0.04
		c-0.581,0.035-1.153-0.138-1.618-0.488c-4.17-3.151-9.225-4.858-14.52-4.858c-9.481,0-17.896,5.498-21.82,13.822
		c-0.352,0.746-1.056,1.263-1.873,1.377C8.889,30.628,0.815,39.625,0.815,50.472c0,10.926,8.205,19.931,18.77,21.282
		c-0.285-1.097-0.536-2.208-0.708-3.347c-0.29-1.886,0.147-3.792,1.199-5.357l-1.123-0.004c-5.556-1.488-9.667-6.554-9.667-12.574
		c0-7.186,5.846-13.03,13.032-13.03c0.363,0,0.72,0.029,1.074,0.058c2.07,0.159,3.946-1.184,4.45-3.191
		c1.752-6.982,8-11.86,15.19-11.86c4.108,0,7.997,1.587,10.95,4.468c1.009,0.985,2.442,1.402,3.822,1.115
		c0.879-0.183,1.779-0.274,2.673-0.274c5.03,0,9.522,2.826,11.725,7.379c0.773,1.601,2.464,2.555,4.235,2.373
		c0.441-0.045,0.88-0.066,1.307-0.066c7.186,0,13.031,5.845,13.031,13.03c0,6.356-4.578,11.65-10.606,12.793
		c0.431,1.447,0.786,2.929,1.016,4.453c0.212,1.377,0.039,2.767-0.479,4.024c10.456-1.451,18.541-10.422,18.541-21.271
		C99.249,39.222,90.563,29.96,79.546,29.043z"/>
</g>
</svg>
