<?xml version="1.0" encoding="UTF-8" standalone="no"?>
<!-- Generator: Adobe Illustrator 16.0.0, SVG Export Plug-In . SVG Version: 6.00 Build 0)  -->

<svg
   xmlns:dc="http://purl.org/dc/elements/1.1/"
   xmlns:cc="http://creativecommons.org/ns#"
   xmlns:rdf="http://www.w3.org/1999/02/22-rdf-syntax-ns#"
   xmlns:svg="http://www.w3.org/2000/svg"
   xmlns="http://www.w3.org/2000/svg"
   xmlns:sodipodi="http://sodipodi.sourceforge.net/DTD/sodipodi-0.dtd"
   xmlns:inkscape="http://www.inkscape.org/namespaces/inkscape"
   version="1.1"
   id="Layer_1"
   x="0px"
   y="0px"
   width="100px"
   height="100px"
   viewBox="0 0 100 100"
   enable-background="new 0 0 100 100"
   xml:space="preserve"
   inkscape:version="0.48.4 r9939"
   sodipodi:docname="Cloud-Computing-Icons_hosting.svg"
   inkscape:export-filename="/home/lukas/workspace-temp/minimac-cloud/files/pages/images/hosting.png"
   inkscape:export-xdpi="58.109146"
   inkscape:export-ydpi="58.109146"><metadata
     id="metadata19"><rdf:RDF><cc:Work
         rdf:about=""><dc:format>image/svg+xml</dc:format><dc:type
           rdf:resource="http://purl.org/dc/dcmitype/StillImage" /><dc:title></dc:title></cc:Work></rdf:RDF></metadata><defs
     id="defs17" /><sodipodi:namedview
     pagecolor="#ffffff"
     bordercolor="#666666"
     borderopacity="1"
     objecttolerance="10"
     gridtolerance="10"
     guidetolerance="10"
     inkscape:pageopacity="0"
     inkscape:pageshadow="2"
     inkscape:window-width="753"
     inkscape:window-height="480"
     id="namedview15"
     showgrid="false"
     inkscape:zoom="2.36"
     inkscape:cx="50"
     inkscape:cy="50"
     inkscape:window-x="706"
     inkscape:window-y="229"
     inkscape:window-maximized="0"
     inkscape:current-layer="Layer_1" /><g
     id="g3"
     style="fill:#0088cc;fill-opacity:1"><path
       d="M74.798,31.091H25.967c-1.562,0-2.836,1.263-2.836,2.828v9.628c0,1.565,1.274,2.828,2.836,2.828h48.831   c1.558,0,2.832-1.263,2.832-2.828v-9.628C77.63,32.354,76.355,31.091,74.798,31.091z M28.238,37.797   c-0.965,0-1.747-0.78-1.747-1.746c0-0.963,0.782-1.745,1.747-1.745c0.967,0,1.746,0.782,1.746,1.745   C29.984,37.018,29.205,37.797,28.238,37.797z M70.182,42.831H57.845v-4.097h12.337V42.831z"
       id="path5"
       style="fill:#0088cc;fill-opacity:1" /><path
       d="M74.798,47.93H25.967c-1.562,0-2.836,1.265-2.836,2.83v9.627c0,1.564,1.274,2.829,2.836,2.829h48.831   c1.558,0,2.832-1.265,2.832-2.829v-9.627C77.63,49.195,76.355,47.93,74.798,47.93z M28.238,54.638   c-0.965,0-1.747-0.777-1.747-1.746c0-0.962,0.782-1.748,1.747-1.748c0.967,0,1.746,0.785,1.746,1.748   C29.984,53.86,29.205,54.638,28.238,54.638z M70.182,59.671H57.845v-4.097h12.337V59.671z"
       id="path7"
       style="fill:#0088cc;fill-opacity:1" /><path
       d="M74.798,64.77H25.967c-1.562,0-2.836,1.265-2.836,2.829v9.627c0,1.564,1.274,2.83,2.836,2.83h48.831   c1.558,0,2.832-1.266,2.832-2.83v-9.627C77.63,66.035,76.355,64.77,74.798,64.77z M28.238,71.476c-0.965,0-1.747-0.776-1.747-1.746   c0-0.964,0.782-1.744,1.747-1.744c0.967,0,1.746,0.779,1.746,1.744C29.984,70.7,29.205,71.476,28.238,71.476z M70.182,76.51H57.845   v-4.099h12.337V76.51z"
       id="path9"
       style="fill:#0088cc;fill-opacity:1" /><polygon
       points="58.815,89.264 53.611,89.264 53.611,81.693 47.155,81.693 47.155,89.264 41.945,89.264 41.945,91.26 23.729,91.26    23.729,97.719 41.945,97.719 41.945,99.716 58.815,99.716 58.815,97.719 77.03,97.719 77.03,91.26 58.815,91.26  "
       id="polygon11"
       style="fill:#0088cc;fill-opacity:1" /><path
       d="M79.203,15.561c-0.698-0.059-1.34-0.416-1.756-0.979c-3.916-5.287-10.192-8.548-16.873-8.548   c-0.418,0-0.836,0.013-1.255,0.038c-0.58,0.035-1.15-0.138-1.614-0.488c-4.066-3.067-8.994-4.729-14.153-4.729   c-9.241,0-17.444,5.354-21.278,13.461c-0.352,0.743-1.054,1.259-1.868,1.373C10.219,17.122,2.356,25.894,2.356,36.468   c0,10.081,7.147,18.519,16.641,20.525v-6.233c0-0.777,0.144-1.518,0.383-2.215c-5.077-1.669-8.757-6.448-8.757-12.076   c0-7.011,5.704-12.715,12.716-12.715c0.354,0,0.702,0.028,1.049,0.056c2.021,0.157,3.849-1.154,4.342-3.114   c1.709-6.814,7.806-11.573,14.822-11.573c4.01,0,7.805,1.548,10.685,4.36c0.984,0.96,2.383,1.369,3.729,1.088   c0.858-0.179,1.736-0.27,2.608-0.27c4.91,0,9.294,2.76,11.441,7.202c0.755,1.562,2.405,2.492,4.132,2.314   c0.43-0.043,0.859-0.064,1.275-0.064c7.012,0,12.717,5.704,12.717,12.715c0,5.629-3.681,10.407-8.758,12.076   c0.238,0.698,0.382,1.438,0.382,2.215v6.233c9.494-2.006,16.643-10.443,16.643-20.525C98.406,25.498,89.942,16.467,79.203,15.561z"
       id="path13"
       style="fill:#0088cc;fill-opacity:1" /></g><path
     sodipodi:type="arc"
     style="fill:none;stroke:#0088cc;stroke-width:8.39999962;stroke-miterlimit:4.32142878;stroke-opacity:1;stroke-dasharray:none;stroke-dashoffset:0"
     id="path3028"
     sodipodi:cx="25"
     sodipodi:cy="53.81356"
     sodipodi:rx="77.118645"
     sodipodi:ry="77.118645"
     d="m 102.11864,53.81356 a 77.118645,77.118645 0 1 1 -154.237285,0 77.118645,77.118645 0 1 1 154.237285,0 z"
     transform="translate(25,-4.6610181)" /></svg>