<?xml version="1.0" encoding="utf-8"?>
<!-- Generator: Adobe Illustrator 16.0.0, SVG Export Plug-In . SVG Version: 6.00 Build 0)  -->
<!DOCTYPE svg PUBLIC "-//W3C//DTD SVG 1.1//EN" "http://www.w3.org/Graphics/SVG/1.1/DTD/svg11.dtd">
<svg version="1.1" id="Layer_1" xmlns="http://www.w3.org/2000/svg" xmlns:xlink="http://www.w3.org/1999/xlink" x="0px" y="0px"
	 width="100px" height="100px" viewBox="0 0 100 100" enable-background="new 0 0 100 100" xml:space="preserve">
<g>
	<path d="M64.731,54.115c0.388-0.827,0.249-1.802-0.335-2.498L53.767,39.122c-0.908-1.066-2.236-1.678-3.631-1.678
		c-1.4,0-2.73,0.612-3.636,1.678L35.878,51.617c-0.592,0.696-0.724,1.671-0.342,2.498c0.381,0.821,1.21,1.355,2.124,1.355h3.966
		v26.412c0,1.994,1.61,3.605,3.598,3.605h9.819c1.986,0,3.598-1.611,3.598-3.605V55.471h3.972
		C63.521,55.471,64.349,54.937,64.731,54.115z"/>
	<path d="M79.763,25.074c-0.701-0.058-1.344-0.417-1.761-0.982c-4.027-5.453-10.496-8.818-17.378-8.818
		c-0.438,0-0.877,0.013-1.316,0.04c-0.582,0.036-1.154-0.138-1.618-0.489c-4.188-3.165-9.264-4.88-14.581-4.88
		c-9.521,0-17.971,5.522-21.91,13.882c-0.352,0.746-1.057,1.264-1.873,1.377C8.828,26.663,0.72,35.697,0.72,46.589
		c0,11.903,9.685,21.588,21.59,21.588h15.316v-8.506H22.31c-7.214,0-13.083-5.869-13.083-13.083c0-7.215,5.869-13.083,13.083-13.083
		c0.364,0,0.723,0.029,1.08,0.058c2.079,0.16,3.961-1.188,4.467-3.204c1.759-7.011,8.032-11.908,15.252-11.908
		c4.125,0,8.029,1.593,10.993,4.485c1.014,0.989,2.452,1.408,3.838,1.12c0.883-0.183,1.786-0.276,2.684-0.276
		c5.051,0,9.562,2.839,11.772,7.41c0.776,1.607,2.475,2.565,4.252,2.382c0.442-0.044,0.884-0.066,1.313-0.066
		c7.214,0,13.083,5.869,13.083,13.083c0,7.213-5.869,13.083-13.083,13.083H62.641v8.506H77.96c11.905,0,21.59-9.686,21.59-21.588
		C99.55,35.292,90.827,25.993,79.763,25.074z"/>
</g>
</svg>
